<?xml version="1.0" encoding="utf-8"?>
<!-- Generator: Adobe Illustrator 19.2.1, SVG Export Plug-In . SVG Version: 6.00 Build 0)  -->
<svg version="1.1" xmlns="http://www.w3.org/2000/svg" xmlns:xlink="http://www.w3.org/1999/xlink" x="0px" y="0px"
	 viewBox="0 0 960 560" style="enable-background:new 0 0 960 560;" xml:space="preserve">
<style type="text/css">
	.st0{fill:#FFFFFF;stroke:#FFFFFF;stroke-miterlimit:10;}
	.st1{fill:#2D5C88;}
	.st2{fill:#FFFFFF;stroke:#FFFFFF;stroke-width:2;stroke-miterlimit:10;}
</style>
<g id="Layer_3">
	<polygon class="st0" points="618.6,356.4 583.6,264.9 629.1,150.5 583.7,150.5 560,224.7 535.5,150.5 488.8,150.5 535.5,262.1 
		495.2,356.4 410.4,150.5 340.2,150.5 256,356.4 215.1,262.1 263,150.5 219.7,150.5 193.3,224.7 170.6,150.5 126.2,150.5 
		170.6,262.1 130.9,356.4 46.7,150.5 8.1,150.5 115.7,407.8 146.1,407.8 195.2,293.2 239.6,407.8 272.4,407.8 365.9,172.7 
		372.8,168.1 379.2,172.8 478.2,407.8 508.6,407.8 561.3,303.7 601,407.8 633.8,407.8 743.7,150.5 702.8,150.5 	"/>
	<path class="st0" d="M916.1,274.5c0,0,72.2-71.9-19.7-124H761.9v257.3l145,0C958.9,387.1,970.9,297.4,916.1,274.5z M798.8,184.6h82
		c4.1,0,8.1,1,11.8,2.9l2.2,1.1c2.9,1.5,5.4,3.5,7.6,5.9l2.3,2.6c1.8,2,3.1,4.2,4.1,6.7l2.2,5.8c1.1,2.9,1.8,5.9,1.9,8.9l0.1,2.2
		c0.2,2.7,0,5.4-0.5,8.1l-1.4,7.3c-0.4,2.1-1.1,4.2-2,6.1l-3.3,7.1c-0.6,1.3-1.4,2.5-2.4,3.6l-0.5,0.6c-3.3,3.6-7.4,6.4-11.9,8.3
		l-1.2,0.5c-4.1,1.7-8.5,2.6-13,2.6h-77.9V184.6z M907.2,368.4l-0.7,0.5c-2.5,2.1-5.3,3.8-8.3,5.1l-3.5,1.5c-3.5,1.4-7.2,2.2-11,2.2
		h-84.8v-80.3h89c3.6,0,7.1,0.7,10.4,2.1l1.3,0.6c3.8,1.6,7.1,4,9.9,6.9l2,2.2c2.2,2.4,4,5.2,5.3,8.3l1.9,4.6
		c0.9,2.2,1.5,4.5,1.7,6.9l0.5,5c0.2,2.4,0.2,4.8-0.2,7.2l-0.8,5.1c-0.4,2.8-1.3,5.5-2.6,8l-2,3.9
		C913.3,362.1,910.5,365.6,907.2,368.4z"/>
	
		<rect x="452.9" y="61.1" transform="matrix(0.7071 -0.7071 0.7071 0.7071 78.1781 365.2626)" class="st1" width="54.3" height="54.3"/>
	
		<rect x="466.4" y="481.7" transform="matrix(0.7071 -0.7071 0.7071 0.7071 -209.65 484.4849)" class="st0" width="27.1" height="27.1"/>
	<g>
		<g>
			
				<rect x="564.6" y="481.7" transform="matrix(0.7071 -0.7071 0.7071 0.7071 -180.8856 553.9281)" class="st0" width="27.1" height="27.1"/>
			<line class="st2" x1="907.7" y1="495.3" x2="578.2" y2="495.3"/>
		</g>
		<g>
			
				<rect x="564.6" y="74.7" transform="matrix(0.7071 -0.7071 0.7071 0.7071 106.9424 434.7058)" class="st0" width="27.1" height="27.1"/>
			<line class="st2" x1="907.7" y1="88.3" x2="578.2" y2="88.3"/>
		</g>
		<g>
			
				<rect x="369.9" y="481.7" transform="matrix(0.7071 -0.7071 0.7071 0.7071 -237.9351 416.1986)" class="st0" width="27.1" height="27.1"/>
			<line class="st2" x1="383.4" y1="495.3" x2="53.9" y2="495.3"/>
		</g>
		<g>
			
				<rect x="369.9" y="74.7" transform="matrix(0.7071 -0.7071 0.7071 0.7071 49.893 296.9763)" class="st0" width="27.1" height="27.1"/>
			<line class="st2" x1="383.4" y1="88.3" x2="53.9" y2="88.3"/>
		</g>
	</g>
	<path class="st1" d="M480,434.9l-60.4,60.4l60.4,60.4l60.4-60.4L480,434.9z M441.6,495.3l38.4-38.4l38.4,38.4L480,533.7
		L441.6,495.3z"/>
</g>
<g id="Layer_2">
</g>
<g id="Layer_4">
</g>
</svg>
